<?xml version="1.0" encoding="UTF-8"?>
<!DOCTYPE svg PUBLIC "-//W3C//DTD SVG 1.1//EN" "http://www.w3.org/Graphics/SVG/1.1/DTD/svg11.dtd">
<svg version="1.1" xmlns="http://www.w3.org/2000/svg" xmlns:xlink="http://www.w3.org/1999/xlink" x="0" y="0" width="128" height="128" viewBox="0, 0, 128, 128">
  <g id="Ebene_1">
    <path d="M128,123 C128,125.762 125.762,128 123,128 L64,128 C61.238,128 59,125.762 59,123 C59,120.238 61.238,118 64,118 L123,118 C125.762,118 128,120.238 128,123 z M123,98.333 L83.667,98.333 C80.905,98.333 78.667,100.572 78.667,103.333 C78.667,106.095 80.905,108.333 83.667,108.333 L123,108.333 C125.762,108.333 128,106.095 128,103.333 C128,100.572 125.762,98.333 123,98.333 z M123,78.667 L103.333,78.667 C100.571,78.667 98.333,80.905 98.333,83.667 C98.333,86.429 100.571,88.667 103.333,88.667 L123,88.667 C125.762,88.667 128,86.429 128,83.667 C128,80.905 125.762,78.667 123,78.667 z M126.535,38.035 L38.035,126.535 C37.098,127.474 35.826,128 34.5,128 L5,128 C2.238,128 -0,125.762 -0,123 L-0,93.5 C-0,92.174 0.526,90.902 1.465,89.965 L89.965,1.465 C91.917,-0.488 95.083,-0.488 97.035,1.465 L126.535,30.965 C128.488,32.917 128.488,36.083 126.535,38.035 z M115.929,34.5 L93.5,12.071 L10,95.571 L10,118 L32.429,118 z M115.929,34.5" fill="#000000"/>
  </g>
</svg>
