<?xml version="1.0" encoding="UTF-8"?>
<!DOCTYPE svg PUBLIC "-//W3C//DTD SVG 1.1//EN" "http://www.w3.org/Graphics/SVG/1.1/DTD/svg11.dtd">
<svg version="1.1" xmlns="http://www.w3.org/2000/svg" xmlns:xlink="http://www.w3.org/1999/xlink" x="0" y="0" width="128" height="128" viewBox="0, 0, 128, 128">
  <g id="Ebene_1">
    <path d="M90.064,26.064 C79.977,26.064 70.801,30.029 64,36.471 C57.198,30.027 48.024,26.064 37.937,26.064 C17.018,26.064 -0,43.082 -0,64.001 C-0,84.918 17.018,101.937 37.937,101.937 C48.024,101.937 57.198,97.971 64,91.529 C70.801,97.973 79.977,101.937 90.064,101.937 C110.981,101.937 128,84.918 128,64.001 C128,43.082 110.981,26.064 90.064,26.064 z M37.937,98.53 C18.895,98.53 3.407,83.038 3.407,64.001 C3.407,44.962 18.897,29.471 37.937,29.471 C47.106,29.471 55.431,33.087 61.617,38.938 C55.717,45.627 52.125,54.402 52.125,64.001 C52.125,73.603 55.717,82.376 61.617,89.067 C55.431,94.913 47.106,98.53 37.937,98.53 z M55.532,64.001 C55.532,55.366 58.742,47.479 64,41.419 C69.258,47.479 72.468,55.366 72.468,64.001 C72.468,72.635 69.258,80.523 64,86.581 C58.742,80.523 55.532,72.634 55.532,64.001 z M90.064,98.53 C80.895,98.53 72.569,94.913 66.383,89.063 C72.283,82.372 75.875,73.599 75.875,63.998 C75.875,54.398 72.283,45.624 66.383,38.935 C72.571,33.083 80.895,29.467 90.064,29.467 C109.105,29.467 124.593,44.958 124.593,63.998 C124.593,83.035 109.105,98.53 90.064,98.53 z M7.669,54.137 L6.464,52.933 L27.569,31.828 L28.773,33.032 L7.669,54.137 z M6.178,63.683 L4.974,62.479 L36.139,31.312 L37.343,32.516 L6.178,63.683 z M51.766,61.281 L20.601,92.45 L19.396,91.246 L50.561,60.078 L51.766,61.281 z M51.766,70.633 L27.388,95.015 L26.184,93.811 L50.563,69.429 L51.766,70.633 z M32.697,95.841 L52.481,76.054 L53.686,77.259 L33.901,97.046 L32.697,95.841 z M40.645,96.555 L55.488,81.708 L56.692,82.913 L41.849,97.76 L40.645,96.555 z M44.403,33.484 L6.307,71.58 L5.103,70.375 L43.198,32.279 L44.403,33.484 z M50.764,35.01 L8.52,77.259 L7.316,76.055 L49.562,33.805 L50.764,35.01 z M57.118,37.531 L11.254,83.394 L10.05,82.19 L55.914,36.327 L57.118,37.531 z M52.609,51.119 L15.262,88.463 L14.058,87.258 L51.403,49.913 L52.609,51.119 z M120.674,54.137 L99.57,33.032 L100.774,31.827 L121.878,52.933 L120.674,54.137 z M122.164,63.683 L90.999,32.518 L92.204,31.313 L123.369,62.48 L122.164,63.683 z M77.778,60.078 L108.945,91.245 L107.74,92.45 L76.573,61.281 L77.778,60.078 z M77.778,69.429 L102.156,93.811 L100.952,95.015 L76.573,70.633 L77.778,69.429 z M75.858,76.055 L95.644,95.842 L94.439,97.046 L74.654,77.259 L75.858,76.055 z M72.852,81.709 L87.695,96.555 L86.491,97.76 L71.649,82.913 L72.852,81.709 z M85.144,32.279 L123.237,70.375 L122.033,71.58 L83.939,33.484 L85.144,32.279 z M78.779,33.805 L121.027,76.055 L119.822,77.259 L77.576,35.01 L78.779,33.805 z M72.427,36.326 L118.29,82.19 L117.086,83.394 L71.224,37.531 L72.427,36.326 z M76.938,49.913 L114.285,87.258 L113.08,88.463 L75.733,51.119 L76.938,49.913 z" fill="#000000"/>
  </g>
</svg>
