<?xml version="1.0" encoding="UTF-8"?>
<!DOCTYPE svg PUBLIC "-//W3C//DTD SVG 1.1//EN" "http://www.w3.org/Graphics/SVG/1.1/DTD/svg11.dtd">
<svg version="1.1" xmlns="http://www.w3.org/2000/svg" xmlns:xlink="http://www.w3.org/1999/xlink" x="0" y="0" width="128" height="128" viewBox="0, 0, 128, 128">
  <g id="Ebene_1">
    <g>
      <path d="M108,0 C90.113,0 30.153,0 27.5,0 C21.297,0 16.25,5.047 16.25,11.25 L16.25,116.25 C16.25,122.729 21.521,128 28,128 L108,128 C110.071,128 111.75,126.321 111.75,124.25 C111.75,119.526 111.75,7.978 111.75,3.75 C111.75,1.679 110.071,0 108,0 z M104.25,104.5 L39.75,104.5 L39.75,7.5 L104.25,7.5 z M27.5,7.5 L32.25,7.5 L32.25,104.5 L28,104.5 C26.501,104.5 25.069,104.785 23.75,105.299 L23.75,11.25 C23.75,9.182 25.432,7.5 27.5,7.5 z M104.25,120.5 L28,120.5 C25.656,120.5 23.75,118.593 23.75,116.25 C23.75,113.907 25.656,112 28,112 L104.25,112 z" fill="#000000"/>
      <path d="M78,79.75 C80.071,79.75 81.75,78.071 81.75,76 C81.75,73.929 80.071,72.25 78,72.25 L66,72.25 C63.929,72.25 62.25,73.929 62.25,76 C62.25,78.071 63.929,79.75 66,79.75 z" fill="#000000"/>
      <path d="M84,86.25 L60,86.25 C57.929,86.25 56.25,87.929 56.25,90 C56.25,92.071 57.929,93.75 60,93.75 L84,93.75 C86.071,93.75 87.75,92.071 87.75,90 C87.75,87.929 86.071,86.25 84,86.25 z" fill="#000000"/>
      <path d="M52,63.75 L92,63.75 C94.071,63.75 95.75,62.071 95.75,60 C95.75,55.884 95.75,23.613 95.75,20 C95.75,17.929 94.071,16.25 92,16.25 L52,16.25 C49.929,16.25 48.25,17.929 48.25,20 L48.25,60 C48.25,62.071 49.929,63.75 52,63.75 z M55.75,56.25 L55.75,49.553 L62,43.303 L74.947,56.25 C71.032,56.25 59.679,56.25 55.75,56.25 z M88.25,56.25 L85.553,56.25 L77.303,48 L82,43.303 L88.25,49.553 z M88.25,23.75 L88.25,38.947 L84.651,35.348 C83.187,33.884 80.813,33.884 79.348,35.348 L72,42.697 L64.651,35.348 C63.187,33.884 60.813,33.884 59.348,35.348 L55.75,38.947 L55.75,23.75 z" fill="#000000"/>
    </g>
  </g>
</svg>
