<?xml version="1.0" encoding="UTF-8"?>
<!DOCTYPE svg PUBLIC "-//W3C//DTD SVG 1.1//EN" "http://www.w3.org/Graphics/SVG/1.1/DTD/svg11.dtd">
<svg version="1.1" xmlns="http://www.w3.org/2000/svg" xmlns:xlink="http://www.w3.org/1999/xlink" x="0" y="0" width="128" height="128" viewBox="0, 0, 128, 128">
  <g id="Ebene_1">
    <path d="M122.667,69.333 L105.408,69.333 L90.48,14.592 C89.835,12.229 87.653,10.64 85.211,10.667 C82.757,10.726 80.661,12.448 80.123,14.838 L62.8,92.789 L42.352,35.536 C41.573,33.355 39.499,31.947 37.163,32 C34.843,32.075 32.843,33.638 32.203,35.867 L22.645,69.333 L5.333,69.333 C2.384,69.333 0,71.723 0,74.667 C0,77.611 2.384,80 5.333,80 L26.667,80 C29.045,80 31.141,78.421 31.792,76.128 L37.893,54.768 L58.981,113.792 C59.738,115.925 61.754,117.333 64,117.333 C64.112,117.333 64.218,117.328 64.33,117.323 C66.699,117.173 68.688,115.477 69.205,113.157 L85.856,38.208 L96.187,76.069 C96.822,78.389 98.928,80 101.334,80 L122.667,80 C125.616,80 128,77.611 128,74.667 C128,71.723 125.616,69.333 122.667,69.333 z" fill="#000000"/>
  </g>
</svg>
