<?xml version="1.0" encoding="UTF-8"?>
<!DOCTYPE svg PUBLIC "-//W3C//DTD SVG 1.1//EN" "http://www.w3.org/Graphics/SVG/1.1/DTD/svg11.dtd">
<svg version="1.1" xmlns="http://www.w3.org/2000/svg" xmlns:xlink="http://www.w3.org/1999/xlink" x="0" y="0" width="128" height="128" viewBox="0, 0, 128, 128">
  <g id="Ebene_1">
    <path d="M124.976,59.884 C123.06,58.113 120.453,57.019 117.824,56.882 C114.839,56.727 112.042,57.794 109.959,59.882 L95.727,73.992 C95.445,73.504 95.124,73.043 94.764,72.615 C93.013,70.532 90.452,69.386 87.555,69.386 L67.631,69.386 C63.874,69.386 60.209,68.897 56.738,67.935 C47.689,65.428 39.045,67.259 31.737,73.236 C28.766,75.666 26.598,78.31 25.227,80.238 L21.654,76.764 C21.185,76.307 20.548,76.048 19.893,76.048 C19.887,76.048 19.882,76.048 19.876,76.048 C19.197,76.053 18.541,76.336 18.07,76.825 L0.704,94.888 C0.239,95.372 -0.014,96.022 0.001,96.693 C0.016,97.365 0.296,98.003 0.781,98.466 L30.153,126.488 C30.641,126.953 31.266,127.185 31.89,127.185 C32.545,127.185 33.2,126.93 33.693,126.423 L50.897,108.738 C51.367,108.254 51.628,107.594 51.615,106.919 C51.603,106.253 51.324,105.612 50.848,105.148 L49.35,103.692 L52.778,103.305 C54.853,103.064 56.962,102.941 59.05,102.941 L89.363,102.941 C94.289,102.941 98.473,101.862 101.799,99.733 C101.826,99.715 101.854,99.697 101.881,99.678 C103.072,98.848 104.153,97.865 105.093,96.756 L125.521,72.677 C129.017,68.557 128.798,63.415 124.976,59.884 z M31.824,121.115 L6.088,96.562 L19.952,82.14 L45.538,107.018 z M121.684,69.409 L101.256,93.489 C100.607,94.253 99.864,94.932 99.045,95.508 C96.548,97.092 93.291,97.896 89.363,97.896 L59.049,97.896 C56.769,97.896 54.463,98.03 52.206,98.294 L44.669,99.141 L28.888,83.796 C29.984,82.167 32.001,79.534 34.922,77.145 C40.994,72.178 47.883,70.715 55.396,72.798 C59.304,73.882 63.42,74.432 67.631,74.432 L87.555,74.432 C91.133,74.432 92.088,77.537 92.088,79.372 C92.088,80.712 91.658,81.988 90.909,82.873 C90.097,83.831 88.941,84.316 87.476,84.316 L70.132,84.316 C68.741,84.316 67.614,85.446 67.614,86.84 C67.614,88.233 68.741,89.362 70.132,89.362 L87.476,89.362 C90.403,89.362 92.985,88.217 94.747,86.139 C96.213,84.411 97.049,82.139 97.119,79.71 L113.511,63.459 C115.854,61.112 119.514,61.701 121.562,63.593 C122.62,64.571 124.044,66.627 121.684,69.409 z M121.684,69.409" fill="#000000"/>
    <path d="M62.279,86.167 C61.962,84.81 60.607,83.97 59.253,84.287 C57.899,84.605 57.059,85.962 57.377,87.319 L57.4,87.422 C57.673,88.584 58.707,89.369 59.85,89.369 C60.04,89.369 60.233,89.347 60.427,89.302 C61.781,88.984 62.621,87.626 62.304,86.27 z M62.279,86.167" fill="#000000"/>
    <path d="M17.02,54.106 L41.555,54.106 C42.891,54.106 44.127,53.671 45.133,52.937 C46.139,53.671 47.375,54.106 48.711,54.106 L73.247,54.106 C74.583,54.106 75.819,53.671 76.825,52.937 C77.831,53.671 79.067,54.106 80.403,54.106 L104.939,54.106 C108.3,54.106 111.034,51.365 111.034,47.997 L111.034,36.533 C111.034,31.385 108.158,26.912 103.854,24.705 C105.939,22.185 107.195,18.952 107.195,15.43 C107.195,7.405 100.68,0.877 92.671,0.877 C84.662,0.877 78.147,7.405 78.147,15.43 C78.147,18.952 79.402,22.186 81.488,24.705 C79.628,25.66 78.035,27.039 76.825,28.711 C75.615,27.038 74.022,25.659 72.161,24.705 C74.247,22.186 75.503,18.952 75.503,15.43 C75.503,7.405 68.987,0.877 60.979,0.877 C52.97,0.877 46.454,7.405 46.454,15.43 C46.454,18.952 47.711,22.186 49.797,24.706 C47.936,25.66 46.343,27.039 45.133,28.712 C43.923,27.039 42.33,25.66 40.469,24.705 C42.555,22.186 43.811,18.952 43.811,15.431 C43.811,7.405 37.295,0.877 29.286,0.877 C21.278,0.877 14.763,7.405 14.763,15.431 C14.763,18.952 16.019,22.186 18.104,24.706 C13.8,26.913 10.923,31.386 10.923,36.534 L10.923,47.997 C10.923,51.365 13.658,54.106 17.02,54.106 z M92.672,5.923 C97.903,5.923 102.16,10.187 102.16,15.43 C102.16,20.671 97.903,24.936 92.672,24.936 C87.439,24.936 83.184,20.672 83.184,15.43 C83.183,10.187 87.439,5.923 92.672,5.923 z M86.13,28.417 C88.098,29.416 90.319,29.982 92.671,29.982 C95.023,29.982 97.245,29.416 99.212,28.417 C103.125,29.1 105.999,32.478 105.999,36.533 L105.999,47.997 C105.999,48.583 105.523,49.06 104.939,49.06 L80.403,49.06 C79.819,49.06 79.344,48.583 79.344,47.997 L79.344,36.533 C79.343,32.479 82.218,29.1 86.13,28.417 z M60.98,5.923 C66.211,5.923 70.468,10.187 70.468,15.43 C70.468,20.671 66.211,24.936 60.98,24.936 C55.747,24.936 51.491,20.672 51.491,15.43 C51.491,10.187 55.747,5.923 60.98,5.923 z M54.438,28.417 C56.405,29.416 58.627,29.982 60.98,29.982 C63.332,29.982 65.553,29.416 67.521,28.417 C71.433,29.1 74.308,32.478 74.308,36.533 L74.308,47.997 C74.308,48.583 73.832,49.06 73.247,49.06 L48.712,49.06 C48.127,49.06 47.651,48.583 47.651,47.997 L47.651,36.533 C47.651,32.479 50.526,29.1 54.438,28.417 z M29.287,5.923 C34.519,5.923 38.775,10.187 38.775,15.43 C38.775,20.671 34.519,24.936 29.287,24.936 C24.056,24.936 19.799,20.671 19.799,15.43 C19.799,10.187 24.056,5.923 29.287,5.923 z M15.959,36.533 C15.959,32.479 18.834,29.1 22.746,28.417 C24.714,29.416 26.935,29.982 29.287,29.982 C31.64,29.982 33.86,29.416 35.828,28.417 C39.741,29.1 42.615,32.478 42.615,36.533 L42.615,47.997 C42.615,48.583 42.14,49.06 41.555,49.06 L17.02,49.06 C16.435,49.06 15.959,48.583 15.959,47.997 z M15.959,36.533" fill="#000000"/>
  </g>
</svg>
