<?xml version="1.0" encoding="UTF-8"?>
<!DOCTYPE svg PUBLIC "-//W3C//DTD SVG 1.1//EN" "http://www.w3.org/Graphics/SVG/1.1/DTD/svg11.dtd">
<svg version="1.1" xmlns="http://www.w3.org/2000/svg" xmlns:xlink="http://www.w3.org/1999/xlink" x="0" y="0" width="128" height="128" viewBox="0, 0, 128, 128">
  <g id="Ebene_1">
    <path d="M115.493,51.493 C109.903,51.493 105.158,55.18 103.561,60.25 L95.25,60.25 C94.208,51.512 89.573,43.861 82.867,38.823 L87.03,31.612 C87.905,31.807 88.813,31.913 89.747,31.913 C96.643,31.913 102.254,26.302 102.254,19.406 C102.254,12.509 96.643,6.899 89.747,6.899 C82.85,6.899 77.24,12.509 77.24,19.406 C77.24,22.662 78.491,25.63 80.537,27.857 L76.377,35.063 C72.576,33.431 68.392,32.526 64,32.526 C59.609,32.526 55.425,33.431 51.624,35.063 L47.464,27.858 C49.509,25.63 50.761,22.662 50.761,19.406 C50.761,12.509 45.151,6.899 38.254,6.899 C31.358,6.899 25.747,12.509 25.747,19.406 C25.747,26.302 31.358,31.913 38.254,31.913 C39.187,31.913 40.096,31.807 40.971,31.612 L45.134,38.823 C38.428,43.861 33.792,51.512 32.75,60.25 L24.439,60.25 C22.842,55.18 18.097,51.493 12.507,51.493 C5.61,51.493 -0,57.104 -0,64 C-0,70.896 5.61,76.507 12.507,76.507 C18.097,76.507 22.842,72.82 24.439,67.75 L32.75,67.75 C33.792,76.489 38.428,84.139 45.134,89.177 L40.971,96.388 C40.095,96.193 39.187,96.087 38.254,96.087 C31.357,96.087 25.747,101.698 25.747,108.594 C25.747,115.491 31.357,121.101 38.254,121.101 C45.15,121.101 50.761,115.491 50.761,108.594 C50.761,105.339 49.509,102.37 47.463,100.143 L51.623,92.937 C55.424,94.568 59.608,95.474 64,95.474 C68.392,95.474 72.575,94.568 76.376,92.937 L80.536,100.143 C78.491,102.37 77.239,105.339 77.239,108.594 C77.239,115.491 82.85,121.101 89.746,121.101 C96.643,121.101 102.253,115.491 102.253,108.594 C102.253,101.698 96.643,96.087 89.746,96.087 C88.813,96.087 87.905,96.193 87.029,96.388 L82.866,89.177 C89.572,84.139 94.207,76.489 95.249,67.75 L103.561,67.75 C105.158,72.82 109.902,76.507 115.493,76.507 C122.39,76.507 128,70.896 128,64 C128,57.104 122.39,51.493 115.493,51.493 z M89.746,14.399 C92.507,14.399 94.753,16.645 94.753,19.406 C94.753,22.167 92.507,24.413 89.746,24.413 C86.985,24.413 84.74,22.167 84.74,19.406 C84.74,16.645 86.985,14.399 89.746,14.399 z M33.246,19.406 C33.246,16.645 35.493,14.399 38.254,14.399 C41.014,14.399 43.261,16.645 43.261,19.406 C43.261,22.167 41.014,24.413 38.254,24.413 C35.493,24.413 33.246,22.167 33.246,19.406 z M38.254,113.601 C35.493,113.601 33.246,111.355 33.246,108.594 C33.246,105.833 35.493,103.587 38.254,103.587 C41.014,103.587 43.261,105.833 43.261,108.594 C43.261,111.355 41.014,113.601 38.254,113.601 z M94.754,108.594 C94.754,111.355 92.507,113.601 89.747,113.601 C86.986,113.601 84.74,111.355 84.74,108.594 C84.74,105.833 86.986,103.587 89.747,103.587 C92.507,103.587 94.754,105.833 94.754,108.594 z M12.507,69.007 C9.746,69.007 7.5,66.761 7.5,64 C7.5,61.239 9.746,58.993 12.507,58.993 C15.268,58.993 17.514,61.239 17.514,64 C17.514,66.761 15.268,69.007 12.507,69.007 z M53.888,85.734 L53.888,85.166 C53.888,79.59 58.424,75.054 64,75.054 C69.576,75.054 74.112,79.59 74.112,85.166 L74.112,85.734 C71.038,87.17 67.611,87.974 64,87.974 C60.389,87.974 56.962,87.17 53.888,85.734 z M57.742,61.296 C57.742,57.845 60.549,55.038 64,55.038 C67.451,55.038 70.258,57.845 70.258,61.296 C70.258,64.747 67.451,67.554 64,67.554 C60.549,67.554 57.742,64.747 57.742,61.296 z M81.068,80.818 C80.007,76.657 77.46,73.086 74.029,70.7 C76.339,68.238 77.758,64.93 77.758,61.296 C77.758,53.71 71.586,47.538 64,47.538 C56.414,47.538 50.242,53.71 50.242,61.296 C50.242,64.93 51.661,68.238 53.971,70.7 C50.54,73.086 47.993,76.657 46.932,80.818 C42.664,76.487 40.026,70.546 40.026,64 C40.026,50.781 50.781,40.026 64,40.026 C77.219,40.026 87.974,50.781 87.974,64 C87.974,70.546 85.336,76.487 81.068,80.818 z M115.493,69.007 C112.732,69.007 110.486,66.761 110.486,64 C110.486,61.239 112.732,58.993 115.493,58.993 C118.254,58.993 120.5,61.239 120.5,64 C120.5,66.761 118.254,69.007 115.493,69.007 z" fill="#000000"/>
  </g>
</svg>
