<?xml version="1.0" encoding="UTF-8"?>
<!DOCTYPE svg PUBLIC "-//W3C//DTD SVG 1.1//EN" "http://www.w3.org/Graphics/SVG/1.1/DTD/svg11.dtd">
<svg version="1.1" xmlns="http://www.w3.org/2000/svg" xmlns:xlink="http://www.w3.org/1999/xlink" x="0" y="0" width="128" height="128" viewBox="0, 0, 128, 128">
  <g id="Ebene_1">
    <path d="M15.25,52.5 C21.453,52.5 26.5,47.453 26.5,41.25 C26.5,40.482 26.422,39.733 26.275,39.008 L38.933,31.414 C39.71,32.265 40.568,33.046 41.5,33.747 L41.5,53.145 C40.326,52.729 39.064,52.5 37.75,52.5 C31.547,52.5 26.5,57.547 26.5,63.75 L26.5,87.537 C26.5,92.545 28.45,97.254 31.992,100.795 C33.952,103.324 41.5,107.77 41.5,118.069 L41.5,124.25 C41.5,126.321 43.179,128 45.25,128 L97.75,128 C99.821,128 101.5,126.321 101.5,124.25 L101.5,115.832 C101.5,108.808 104.528,103.656 104.645,103.345 C107.494,97.647 109,91.268 109,84.897 L109,56.25 C109,50.047 103.953,45 97.75,45 C96.286,45 94.888,45.284 93.604,45.795 C92.303,41.021 87.931,37.5 82.75,37.5 C79.871,37.5 77.242,38.587 75.25,40.371 C73.258,38.587 70.629,37.5 67.75,37.5 C66.436,37.5 65.174,37.729 64,38.145 L64,33.747 C67.041,31.459 69.301,28.305 70.507,24.749 L101.762,28.655 C102.867,33.706 107.372,37.5 112.75,37.5 C118.953,37.5 124,32.453 124,26.25 C124,20.047 118.953,15 112.75,15 C108.356,15 104.546,17.533 102.694,21.214 L71.439,17.307 C70.699,7.641 62.603,0 52.75,0 C42.411,0 34,8.411 34,18.75 C34,20.901 34.375,23.005 35.075,24.981 L22.411,32.58 C20.464,30.97 17.968,30 15.25,30 C9.047,30 4,35.047 4,41.25 C4,47.453 9.047,52.5 15.25,52.5 z M112.75,22.5 C114.817,22.5 116.5,24.183 116.5,26.25 C116.5,28.317 114.817,30 112.75,30 C110.683,30 109,28.317 109,26.25 C109,24.183 110.683,22.5 112.75,22.5 z M67.75,45 C69.817,45 71.5,46.683 71.5,48.75 L71.5,63.75 C71.5,65.821 73.179,67.5 75.25,67.5 C77.321,67.5 79,65.821 79,63.75 L79,48.75 C79,46.683 80.683,45 82.75,45 C84.817,45 86.5,46.683 86.5,48.75 L86.5,71.25 C86.5,73.321 88.179,75 90.25,75 C92.321,75 94,73.321 94,71.25 L94,56.25 C94,54.183 95.683,52.5 97.75,52.5 C99.817,52.5 101.5,54.183 101.5,56.25 L101.5,84.897 C101.5,90.109 100.268,95.329 97.937,99.991 C97.754,100.484 94,106.71 94,115.832 L94,120.5 L49,120.5 L49,118.069 C49,104.134 38.987,97.743 37.295,95.492 C35.17,93.367 34,90.542 34,87.537 L34,63.75 C34,61.683 35.683,60 37.75,60 C39.817,60 41.5,61.683 41.5,63.75 L41.5,78.75 C41.5,80.821 43.179,82.5 45.25,82.5 C47.321,82.5 49,80.821 49,78.75 L49,26.25 C49,24.238 50.593,22.597 52.584,22.509 L53.86,22.668 C55.388,23.143 56.5,24.568 56.5,26.25 L56.5,63.75 C56.5,65.821 58.179,67.5 60.25,67.5 C62.321,67.5 64,65.821 64,63.75 L64,48.75 C64,46.683 65.683,45 67.75,45 z M52.75,7.5 C58.953,7.5 64,12.547 64,18.75 C64,20.042 63.772,21.305 63.352,22.491 C61.788,18.095 57.631,15.049 52.86,15.003 C52.842,15.002 52.824,15.002 52.806,15.001 C52.787,15.001 52.769,15 52.75,15 C47.864,15 43.698,18.131 42.148,22.491 C41.728,21.305 41.5,20.042 41.5,18.75 C41.5,12.547 46.547,7.5 52.75,7.5 z M15.25,37.5 C17.317,37.5 19,39.183 19,41.25 C19,43.317 17.317,45 15.25,45 C13.183,45 11.5,43.317 11.5,41.25 C11.5,39.183 13.183,37.5 15.25,37.5 z M15.25,37.5" fill="#000000"/>
  </g>
</svg>
